<svg width="74" height="74" viewBox="0 0 74 74" fill="none" xmlns="http://www.w3.org/2000/svg">
<path d="M59.2844 60.976C59.2844 62.1899 59.0416 63.3188 58.556 64.3628C58.0704 65.4067 57.4028 66.3293 56.5531 67.1305C55.7033 67.9317 54.7079 68.5629 53.5668 69.0242C52.4258 69.4855 51.1997 69.7161 49.8887 69.7161H24.0324C22.7214 69.7161 21.4953 69.4855 20.3542 69.0242C19.2132 68.5629 18.2178 67.9317 17.368 67.1305C16.5183 66.3293 15.8506 65.4067 15.3651 64.3628C14.8795 63.3188 14.6367 62.1899 14.6367 60.976V12.1768C14.6367 10.9629 14.8795 9.82177 15.3651 8.75353C15.8506 7.68529 16.5183 6.75058 17.368 5.9494C18.2178 5.14822 19.2132 4.51698 20.3542 4.0557C21.4953 3.59441 22.7214 3.36377 24.0324 3.36377H49.8887C51.1997 3.36377 52.4258 3.59441 53.5668 4.0557C54.7079 4.51698 55.7033 5.14822 56.5531 5.9494C57.4028 6.75058 58.0704 7.68529 58.556 8.75353C59.0416 9.82177 59.2844 10.9629 59.2844 12.1768V60.976ZM53.3848 15.6728H20.4635V57.4071H53.3848V15.6728ZM36.9241 59.4464C35.9044 59.4464 35.0183 59.8106 34.2657 60.539C33.513 61.2673 33.1367 62.1656 33.1367 63.2338C33.1367 64.2535 33.513 65.1397 34.2657 65.8923C35.0183 66.6449 35.9044 67.0213 36.9241 67.0213C37.9924 67.0213 38.8907 66.6449 39.619 65.8923C40.3473 65.1397 40.7115 64.2535 40.7115 63.2338C40.7115 62.1656 40.3473 61.2673 39.619 60.539C38.8907 59.8106 37.9924 59.4464 36.9241 59.4464ZM42.7509 9.48188C42.7509 9.09343 42.6295 8.78995 42.3867 8.57145C42.1439 8.35294 41.8769 8.24369 41.5855 8.24369H32.3355C32.0928 8.24369 31.8378 8.35294 31.5708 8.57145C31.3037 8.78995 31.1702 9.09343 31.1702 9.48188C31.1702 9.87033 31.2916 10.1738 31.5344 10.3923C31.7771 10.6108 32.0442 10.7201 32.3355 10.7201H41.5855C41.8769 10.7201 42.1439 10.6108 42.3867 10.3923C42.6295 10.1738 42.7509 9.87033 42.7509 9.48188Z" fill="#1AA7EC"/>
</svg>
