<svg width="74" height="74" viewBox="0 0 74 74" fill="none" xmlns="http://www.w3.org/2000/svg">
<g clip-path="url(#clip0_55687_1899)">
<path d="M57.0336 13.5942C62.6278 18.3684 66.3313 24.985 67.4757 32.2499C68.6201 39.5148 67.13 46.9494 63.2744 53.2122C59.4187 59.475 53.4515 64.1534 46.4496 66.4031C39.4476 68.6527 31.8721 68.3255 25.0902 65.4805L24.4027 65.1783L9.72908 67.7961L9.38991 67.83C9.27694 67.8362 9.16372 67.8362 9.05075 67.83L8.73625 67.7899L8.40325 67.7159L8.0795 67.6018L7.77425 67.4569L7.4875 67.2781L7.44433 67.2442L7.40733 67.2226L7.14216 66.9975L6.90475 66.7508L6.69816 66.4795L6.5255 66.1897L6.42066 65.9738L6.29733 65.6408L6.211 65.2462L6.174 64.9317C6.16596 64.8033 6.16596 64.6746 6.174 64.5463L6.211 64.2379L6.285 63.8988L6.42375 63.5226L10.8422 53.3353L10.8144 53.2921C7.10748 47.3078 5.55986 40.2352 6.42871 33.2497C7.29756 26.2641 10.5306 19.7861 15.5905 14.8923L16.2534 14.2663C21.8035 9.20804 29.0088 6.34902 36.5171 6.22583C44.0254 6.10264 51.3205 8.72066 57.0336 13.5942ZM29.2928 23.1248C28.0662 23.1248 26.8898 23.612 26.0225 24.4794C25.1551 25.3467 24.6678 26.5231 24.6678 27.7498V30.8331C24.6678 35.7396 26.6169 40.4451 30.0864 43.9146C33.5558 47.384 38.2613 49.3331 43.1678 49.3331H46.2512C47.4778 49.3331 48.6542 48.8458 49.5215 47.9785C50.3889 47.1111 50.8762 45.9347 50.8762 44.7081C50.8762 43.4815 50.3889 42.3051 49.5215 41.4377C48.6542 40.5704 47.4778 40.0831 46.2512 40.0831H43.1678L42.7238 40.1047C42.0182 40.1724 41.3375 40.4014 40.7345 40.774C40.1314 41.1467 39.6221 41.653 39.2458 42.2538L39.1163 42.4819L39.0485 42.4603C37.318 41.8451 35.7463 40.852 34.4476 39.5533C33.1489 38.2547 32.1558 36.6829 31.5406 34.9524L31.5159 34.8815L31.7472 34.7551C32.4118 34.339 32.9597 33.7607 33.3394 33.0746C33.7191 32.3886 33.9182 31.6172 33.9178 30.8331V27.7498C33.9178 26.5231 33.4306 25.3467 32.5632 24.4794C31.6958 23.612 30.5195 23.1248 29.2928 23.1248Z" fill="#1AA7EC"/>
</g>
<defs>
<clipPath id="clip0_55687_1899">
<rect width="74" height="74" fill="white"/>
</clipPath>
</defs>
</svg>
