<svg width="74" height="74" viewBox="0 0 74 74" fill="none" xmlns="http://www.w3.org/2000/svg">
<path d="M13.1272 17.4863L19.715 24.074C17.0164 27.6771 15.418 32.1519 15.418 36.9998C15.418 48.92 25.0812 58.5832 37.0013 58.5832C48.9215 58.5832 58.5846 48.92 58.5846 36.9998C58.5846 25.0797 48.9215 15.4165 37.0013 15.4165C32.1534 15.4165 27.6786 17.0149 24.0754 19.7135L17.4877 13.1257C22.803 8.77614 29.5974 6.1665 37.0013 6.1665C54.0299 6.1665 67.8346 19.9711 67.8346 36.9998C67.8346 54.0285 54.0299 67.8332 37.0013 67.8332C19.9725 67.8332 6.16797 54.0285 6.16797 36.9998C6.16797 29.5959 8.77761 22.8015 13.1272 17.4863ZM24.1389 28.4979L37.0013 41.3603L41.3618 36.9998L28.4994 24.1374C30.9364 22.5232 33.8591 21.5832 37.0013 21.5832C45.5156 21.5832 52.418 28.4855 52.418 36.9998C52.418 45.5142 45.5156 52.4165 37.0013 52.4165C28.4869 52.4165 21.5846 45.5142 21.5846 36.9998C21.5846 33.8576 22.5247 30.9349 24.1389 28.4979Z" fill="#1AA7EC"/>
</svg>
