<svg width="74" height="74" viewBox="0 0 74 74" fill="none" xmlns="http://www.w3.org/2000/svg">
<g clip-path="url(#clip0_55687_1895)">
<path d="M36.9968 6.1665C31.2726 6.1665 25.7828 8.44046 21.7351 12.4881C17.6875 16.5358 15.4135 22.0256 15.4135 27.7498V38.6278C15.4139 39.1061 15.3031 39.578 15.0898 40.0061L9.79567 50.5912C9.53706 51.1083 9.41494 51.683 9.44093 52.2606C9.46691 52.8382 9.64012 53.3996 9.94412 53.8914C10.2481 54.3832 10.6728 54.7892 11.1778 55.0707C11.6829 55.3522 12.2515 55.4999 12.8297 55.4998H61.164C61.7422 55.4999 62.3108 55.3522 62.8159 55.0707C63.3209 54.7892 63.7456 54.3832 64.0496 53.8914C64.3536 53.3996 64.5268 52.8382 64.5527 52.2606C64.5787 51.683 64.4566 51.1083 64.198 50.5912L58.907 40.0061C58.6926 39.5783 58.5807 39.1064 58.5802 38.6278V27.7498C58.5802 22.0256 56.3062 16.5358 52.2586 12.4881C48.2109 8.44046 42.7211 6.1665 36.9968 6.1665ZM36.9968 64.7498C35.0833 64.7504 33.2166 64.1577 31.6539 63.0533C30.0912 61.9489 28.9093 60.3871 28.271 58.5832H45.7227C45.0844 60.3871 43.9025 61.9489 42.3398 63.0533C40.7771 64.1577 38.9104 64.7504 36.9968 64.7498Z" fill="#1AA7EC"/>
</g>
<defs>
<clipPath id="clip0_55687_1895">
<rect width="74" height="74" fill="white"/>
</clipPath>
</defs>
</svg>
