<svg width="74" height="74" viewBox="0 0 74 74" fill="none" xmlns="http://www.w3.org/2000/svg">
<path d="M36.9974 6.1665C54.026 6.1665 67.8307 19.9711 67.8307 36.9998C67.8307 54.0285 54.026 67.8332 36.9974 67.8332C19.9686 67.8332 6.16406 54.0285 6.16406 36.9998C6.16406 19.9711 19.9686 6.1665 36.9974 6.1665ZM51.169 22.8283C50.5382 22.1976 49.5456 22.1113 48.8155 22.6237C39.9074 28.8768 34.8779 32.5786 33.7269 33.7293C31.921 35.5356 31.921 38.4641 33.7269 40.2703C35.5331 42.0762 38.4617 42.0762 40.2679 40.2703C40.9428 39.5951 44.641 34.5625 51.3617 25.1727C51.8797 24.4493 51.798 23.4573 51.169 22.8283ZM53.9557 33.9165C52.2528 33.9165 50.8724 35.2969 50.8724 36.9998C50.8724 38.7028 52.2528 40.0832 53.9557 40.0832C55.6587 40.0832 57.0391 38.7028 57.0391 36.9998C57.0391 35.2969 55.6587 33.9165 53.9557 33.9165ZM20.0391 33.9165C18.3362 33.9165 16.9557 35.2969 16.9557 36.9998C16.9557 38.7028 18.3362 40.0832 20.0391 40.0832C21.7419 40.0832 23.1224 38.7028 23.1224 36.9998C23.1224 35.2969 21.7419 33.9165 20.0391 33.9165ZM27.1863 22.8283C25.9822 21.6241 24.0299 21.6241 22.8258 22.8283C21.6217 24.0324 21.6217 25.9846 22.8258 27.1887C24.0299 28.3928 25.9822 28.3928 27.1863 27.1887C28.3904 25.9846 28.3904 24.0324 27.1863 22.8283ZM36.9974 16.9582C35.2945 16.9582 33.9141 18.3386 33.9141 20.0415C33.9141 21.7444 35.2945 23.1248 36.9974 23.1248C38.7003 23.1248 40.0807 21.7444 40.0807 20.0415C40.0807 18.3386 38.7003 16.9582 36.9974 16.9582Z" fill="#1AA7EC"/>
</svg>
