<svg width="74" height="74" viewBox="0 0 74 74" fill="none" xmlns="http://www.w3.org/2000/svg">
<path d="M67.832 30.8321V24.6679C67.832 21.275 65.057 18.5 61.6678 18.5H9.24993C5.85703 18.5 3.08203 21.275 3.08203 24.6679V49.3321C3.08203 52.725 5.85703 55.5 9.24993 55.5H61.6678C65.057 55.5 67.832 52.725 67.832 49.3321V43.1679C68.6498 43.1659 69.4336 42.8402 70.0119 42.2619C70.5901 41.6837 70.9159 40.8999 70.9178 40.0821V33.9179C70.9159 33.1001 70.5901 32.3163 70.0119 31.7381C69.4336 31.1598 68.6498 30.8341 67.832 30.8321ZM64.7499 49.3321C64.748 50.1493 64.4228 50.9325 63.8453 51.5106C63.2678 52.0888 62.485 52.415 61.6678 52.4179H9.24993C8.43277 52.415 7.64997 52.0888 7.07249 51.5106C6.49501 50.9325 6.16978 50.1493 6.16783 49.3321V24.6679C6.16783 22.9696 7.55533 21.5821 9.24993 21.5821H61.6678C63.3624 21.5821 64.7499 22.9696 64.7499 24.6679V49.3321ZM9.24993 49.3321H36.9999V24.6679H9.24993V49.3321Z" fill="#1AA7EC"/>
</svg>
