<svg width="74" height="74" viewBox="0 0 74 74" fill="none" xmlns="http://www.w3.org/2000/svg">
<path d="M9.25391 23.4743L35.3591 37.8234L35.359 68.0019L10.3529 53.8991C10.0245 53.7139 9.75024 53.446 9.55748 53.122C9.36472 52.798 9.26016 52.4291 9.2542 52.0521L9.25391 52.0182V23.4743ZM65.621 22.6568L65.6211 52.0182C65.621 52.401 65.5192 52.7769 65.3261 53.1074C65.133 53.4379 64.8555 53.7111 64.5221 53.8991L39.8481 67.8145L39.8482 37.7825L65.621 22.6568ZM36.375 5.33752C36.6993 5.15467 37.0652 5.05859 37.4375 5.05859C37.8098 5.05859 38.1757 5.15467 38.5 5.33752L63.0268 19.1699L37.5713 34.1095L11.1295 19.5753L36.375 5.33752Z" fill="#1AA7EC"/>
</svg>
