<svg width="74" height="74" viewBox="0 0 74 74" fill="none" xmlns="http://www.w3.org/2000/svg">
<path d="M33.906 43.1665V33.9165H40.0727V43.1665H55.4893C57.1923 43.1665 58.5727 44.5469 58.5727 46.2498V64.7498C58.5727 66.4528 57.1923 67.8332 55.4893 67.8332H18.4895C16.7866 67.8332 15.4062 66.4528 15.4062 64.7498V46.2498C15.4062 44.5469 16.7866 43.1665 18.4895 43.1665H33.906ZM7.73047 27.2468C11.8115 14.9979 23.3692 6.1665 36.9893 6.1665C50.61 6.1665 62.1675 14.9979 66.2486 27.2468L60.3968 29.1974C57.1318 19.3983 47.8858 12.3332 36.9893 12.3332C26.0932 12.3332 16.8471 19.3983 13.5823 29.1974L7.73047 27.2468ZM19.4341 31.148C21.8827 23.7987 28.8173 18.4998 36.9893 18.4998C45.1617 18.4998 52.0961 23.7987 54.5449 31.148L48.693 33.0985C47.0607 28.1991 42.4376 24.6665 36.9893 24.6665C31.5414 24.6665 26.9183 28.1991 25.2859 33.0985L19.4341 31.148Z" fill="#1AA7EC"/>
</svg>
